<svg width="93" height="30" viewBox="0 0 93 30" fill="none" xmlns="http://www.w3.org/2000/svg">
<g clip-path="url(#clip0_3_89)">
<path d="M12.1406 0.00332642H12.9579C15.7955 0.0650121 18.5867 1.2062 20.5915 3.2264C19.8513 3.98205 19.0957 4.70686 18.3708 5.46251C17.2451 4.4447 15.888 3.6582 14.4075 3.38062C12.2177 2.91798 9.85821 3.33435 8.02306 4.58349C6.01827 5.89431 4.66119 8.115 4.36818 10.4899C4.04433 12.834 4.70745 15.3014 6.23417 17.1211C7.69921 18.8946 9.93532 20.0049 12.2485 20.082C14.4075 20.2054 16.6591 19.5423 18.2321 18.031C19.4658 16.9669 20.0364 15.3476 20.2214 13.7747C17.6615 13.7747 15.1015 13.7901 12.5415 13.7747V10.5978H23.3211C23.8763 14.006 23.0744 17.8459 20.4836 20.2825C18.7564 22.0097 16.3661 23.0275 13.9295 23.228C11.57 23.4593 9.13341 23.0121 7.03609 21.8709C4.5224 20.5292 2.51761 18.2623 1.53064 15.5944C0.605349 13.1424 0.589928 10.3665 1.45353 7.8991C2.24002 5.64757 3.75132 3.6582 5.69442 2.27028C7.56042 0.897769 9.82737 0.142119 12.1406 0.00332642Z" fill="black"/>
<path d="M73.9805 0.804565H77.2806V22.8264C76.1857 22.8264 75.0754 22.8418 73.9805 22.811C73.9959 15.4858 73.9805 8.14517 73.9805 0.804565Z" fill="black"/>
<path d="M30.6618 8.43819C32.6974 8.05266 34.9027 8.48446 36.5836 9.70275C38.1103 10.7822 39.1744 12.4786 39.4983 14.3292C39.9147 16.4727 39.3903 18.8168 38.0024 20.5132C36.5065 22.41 34.0545 23.4278 31.6642 23.2736C29.4743 23.1502 27.3462 22.0553 26.0508 20.2664C24.5857 18.2925 24.231 15.5783 25.033 13.2651C25.8349 10.7822 28.1018 8.88541 30.6618 8.43819ZM31.1244 11.3683C30.2917 11.5842 29.5206 12.0622 28.9654 12.7408C27.4695 14.5297 27.5621 17.4443 29.2122 19.1098C30.1529 20.0659 31.5717 20.5132 32.8825 20.251C34.1008 20.0351 35.1649 19.2178 35.7509 18.1383C36.7687 16.3031 36.4757 13.774 34.9181 12.3398C33.9157 11.4145 32.4507 11.029 31.1244 11.3683Z" fill="black"/>
<path d="M47.0085 8.43818C49.3371 7.99096 51.8817 8.63866 53.6243 10.2733C56.4618 12.8179 56.7703 17.5831 54.3491 20.5132C52.8841 22.3637 50.5092 23.3816 48.1651 23.2736C45.929 23.2119 43.7237 22.1016 42.3975 20.2664C40.9016 18.2462 40.5778 15.4704 41.4259 13.1109C42.2741 10.7051 44.4948 8.86998 47.0085 8.43818ZM47.4711 11.3683C46.6384 11.5842 45.8673 12.0622 45.3121 12.7253C43.8317 14.4834 43.8934 17.3518 45.4818 19.0327C46.4225 20.0351 47.8875 20.5286 49.2446 20.251C50.4475 20.0197 51.527 19.2178 52.113 18.1383C53.1154 16.2877 52.8224 13.7586 51.2494 12.3244C50.247 11.3991 48.782 11.029 47.4711 11.3683Z" fill="black"/>
<path d="M60.8724 9.33262C62.6459 8.22227 65.0054 7.91384 66.9176 8.86997C67.519 9.13214 68.0125 9.57936 68.4906 10.0266C68.506 9.6102 68.4906 9.1784 68.506 8.7466C69.5393 8.76202 70.5725 8.7466 71.6212 8.76202V22.3637C71.6057 24.4148 71.0814 26.5892 69.6009 28.0851C67.9817 29.7352 65.4988 30.2441 63.2627 29.9048C60.8724 29.5501 58.7905 27.8075 57.8652 25.6022C58.7905 25.155 59.7621 24.8003 60.7182 24.3839C61.2579 25.6485 62.3529 26.728 63.7254 26.9747C65.0979 27.2215 66.6863 26.8822 67.5807 25.741C68.5369 24.569 68.5369 22.9652 68.4906 21.531C67.7812 22.2249 66.9639 22.8418 65.9769 23.0731C63.8333 23.6746 61.4738 22.9343 59.8238 21.4847C58.1582 20.0351 57.1713 17.799 57.2638 15.5783C57.3101 13.0646 58.7288 10.6434 60.8724 9.33262ZM64.0646 11.3066C63.1239 11.4608 62.2449 11.9851 61.6435 12.7099C60.1939 14.4371 60.1939 17.1975 61.6589 18.8939C62.4917 19.8963 63.8333 20.4515 65.1287 20.3127C66.347 20.1893 67.4728 19.4182 68.0742 18.3542C69.092 16.5498 68.9224 14.0978 67.5499 12.5249C66.7017 11.5533 65.3446 11.0752 64.0646 11.3066Z" fill="black"/>
<path d="M81.244 10.1191C83.0946 8.39194 85.9475 7.80592 88.3224 8.71579C90.574 9.56397 92.0082 11.7076 92.733 13.9128C89.3865 15.3007 86.0555 16.6733 82.709 18.0612C83.1717 18.9402 83.881 19.7421 84.8372 20.066C86.1789 20.544 87.7827 20.3744 88.9085 19.48C89.3557 19.1407 89.7104 18.6935 90.0496 18.2617C90.8978 18.8323 91.746 19.3874 92.5942 19.958C91.3913 21.7623 89.3711 23.0269 87.1967 23.2274C84.7909 23.5204 82.2309 22.5951 80.6734 20.7137C78.1134 17.7528 78.3602 12.7871 81.244 10.1191ZM82.8941 12.9721C82.3697 13.7278 82.1538 14.653 82.1693 15.5629C84.4054 14.6376 86.6415 13.7123 88.8776 12.7716C88.5075 11.908 87.6131 11.3837 86.7032 11.2449C85.2381 10.9827 83.7114 11.7692 82.8941 12.9721Z" fill="black"/>
</g>
<defs>
<clipPath id="clip0_3_89">
<rect width="91.9118" height="30" fill="white" transform="translate(0.821289)"/>
</clipPath>
</defs>
</svg>
