<?xml version="1.0" standalone="no"?>
<!DOCTYPE svg PUBLIC "-//W3C//DTD SVG 20010904//EN"
 "http://www.w3.org/TR/2001/REC-SVG-20010904/DTD/svg10.dtd">
<svg version="1.0" xmlns="http://www.w3.org/2000/svg"
 width="700.000000pt" height="700.000000pt" viewBox="0 0 700.000000 700.000000"
 preserveAspectRatio="xMidYMid meet">
<metadata>
Created by potrace 1.14, written by Peter Selinger 2001-2017
</metadata>
<g transform="translate(0.000000,700.000000) scale(0.100000,-0.100000)"
fill="#000000" stroke="none">
<path d="M1299 5964 c-525 -57 -978 -394 -1184 -881 -39 -92 -86 -262 -103
-373 -7 -42 -10 -478 -10 -1215 0 -1073 1 -1157 19 -1261 76 -455 371 -854
785 -1062 114 -57 264 -109 374 -128 14 -3 31 -7 38 -9 7 -3 52 -8 100 -12
112 -9 4264 -9 4360 0 180 17 432 93 552 167 8 5 31 18 51 29 218 118 445 363
567 611 59 120 93 218 125 357 22 98 22 100 24 1268 1 644 -2 1199 -7 1235
-51 382 -232 712 -526 956 -102 84 -259 176 -400 233 -59 24 -220 67 -285 76
-24 3 -57 9 -74 12 -60 12 -4296 9 -4406 -3z m1046 -1607 c327 -60 598 -310
685 -630 72 -267 16 -550 -153 -767 -176 -227 -431 -345 -722 -335 -127 4
-218 25 -337 78 -222 99 -417 333 -477 572 -21 82 -24 113 -24 215 -1 166 20
257 89 395 133 263 379 439 669 479 32 4 236 -1 270 -7z m2636 -4 c407 -84
698 -429 702 -833 2 -134 -7 -193 -43 -301 -25 -76 -81 -193 -100 -209 -3 -3
-13 -17 -22 -31 -56 -88 -212 -219 -318 -267 -78 -35 -124 -53 -145 -58 -108
-25 -172 -32 -274 -29 -422 12 -772 326 -836 750 -9 62 -7 200 5 268 61 349
328 629 675 707 99 22 259 24 356 3z"/>
</g>
</svg>
