<svg width="88" height="30" viewBox="0 0 88 30" fill="none" xmlns="http://www.w3.org/2000/svg">
<g clip-path="url(#clip0_3_98)">
<path d="M20.3993 15.9409C20.3631 12.1448 23.5006 10.3209 23.6417 10.234C21.8758 7.6538 19.1327 7.29915 18.1556 7.25934C15.8215 7.0205 13.5995 8.6345 12.4125 8.6345C11.2256 8.6345 9.39807 7.29191 7.462 7.33172C4.91435 7.36791 2.56574 8.81182 1.25211 11.0917C-1.38963 15.6731 0.579008 22.4765 3.15923 26.2003C4.42219 28.0205 5.92038 30.0724 7.89626 29.9964C9.79976 29.9204 10.5163 28.766 12.8106 28.766C15.1049 28.766 15.7527 29.9964 17.7612 29.9602C19.8058 29.9204 21.1013 28.1001 22.3534 26.2726C23.7937 24.1556 24.3908 22.111 24.427 22.0024C24.38 21.9843 20.4427 20.4753 20.3993 15.9409Z" fill="black"/>
<path d="M16.6248 4.79132C17.6743 3.52111 18.3799 1.75875 18.1881 0C16.6791 0.0615199 14.8516 1.00603 13.7696 2.27624C12.7997 3.39807 11.9493 5.193 12.1809 6.91556C13.8564 7.04584 15.579 6.0579 16.6248 4.79132ZM33.6333 19.6719L31.8962 24.9373H29.6634L35.3486 8.20386H37.9541L43.661 24.9373H41.3522L39.5645 19.6719H33.6333ZM39.1194 17.9819L37.4837 13.1653C37.111 12.0724 36.8649 11.0808 36.6152 10.111H36.5681C36.3184 11.1025 36.047 12.1194 35.7249 13.1399L34.0892 17.9783L39.1194 17.9819ZM45.3546 16.842C45.3546 15.304 45.3076 14.0591 45.2533 12.9192H47.2147L47.316 14.9819H47.3631C48.2569 13.5163 49.6719 12.6478 51.6333 12.6478C54.5392 12.6478 56.7213 15.1049 56.7213 18.7563C56.7213 23.0772 54.0905 25.2087 51.2605 25.2087C49.6719 25.2087 48.2822 24.5139 47.5621 23.3233H47.5151V29.8516H45.3546V16.842ZM47.5114 20.0446C47.5114 20.3703 47.5585 20.6635 47.6128 20.9385C48.0108 22.4511 49.3245 23.497 50.8914 23.497C53.2002 23.497 54.5428 21.6116 54.5428 18.854C54.5428 16.4439 53.2762 14.3884 50.9674 14.3884C49.4801 14.3884 48.0904 15.456 47.6634 17.0953C47.5874 17.3667 47.5151 17.6924 47.5151 17.9891L47.5114 20.0446ZM58.9795 16.842C58.9795 15.304 58.9324 14.0591 58.8781 12.9192H60.8395L60.9409 14.9819H60.9879C61.8818 13.5163 63.2967 12.6478 65.2581 12.6478C68.164 12.6478 70.3462 15.1049 70.3462 18.7563C70.3462 23.0772 67.7153 25.2087 64.8854 25.2087C63.2967 25.2087 61.9071 24.5139 61.187 23.3233H61.1399V29.8516H58.9795V16.842ZM61.1399 20.0446C61.1399 20.3703 61.187 20.6635 61.2412 20.9385C61.6393 22.4511 62.9529 23.497 64.5199 23.497C66.8287 23.497 68.1713 21.6116 68.1713 18.854C68.1713 16.4439 66.9047 14.3884 64.5959 14.3884C63.1085 14.3884 61.7189 15.456 61.2919 17.0953C61.2159 17.3667 61.1435 17.6924 61.1435 17.9891L61.1399 20.0446ZM72.6079 7.31001H74.7937V24.9337H72.6079V7.31001ZM79.187 19.3245C79.234 22.2774 81.123 23.497 83.3052 23.497C84.8685 23.497 85.813 23.2256 86.6309 22.8782L87.0036 24.4415C86.2364 24.7889 84.9192 25.187 83.0084 25.187C79.31 25.187 77.0989 22.7551 77.0989 19.1291C77.0989 15.503 79.234 12.6478 82.7334 12.6478C86.6562 12.6478 87.6984 16.0965 87.6984 18.3076C87.6984 18.7563 87.6514 19.1001 87.6224 19.3245H79.187ZM85.5923 17.7612C85.6176 16.3715 85.0205 14.2111 82.5633 14.2111C80.3522 14.2111 79.386 16.2485 79.2123 17.7612H85.5923Z" fill="black"/>
</g>
<defs>
<clipPath id="clip0_3_98">
<rect width="87.7021" height="30" fill="white"/>
</clipPath>
</defs>
</svg>
