<svg width="119" height="30" viewBox="0 0 119 30" fill="none" xmlns="http://www.w3.org/2000/svg">
<g clip-path="url(#clip0_3_81)">
<path fill-rule="evenodd" clip-rule="evenodd" d="M38.168 23.6215L39.6476 20.1834C41.2457 21.3784 43.3751 21.9997 45.4759 21.9997C47.0266 21.9997 48.0083 21.4021 48.0083 20.4963C47.9846 17.9639 38.7181 19.9462 38.6469 13.5963C38.6232 10.3715 41.4876 7.88649 45.547 7.88649C47.9609 7.88649 50.37 8.48403 52.0915 9.84507L50.7067 13.3544C49.1322 12.349 47.1737 11.6329 45.3099 11.6329C44.0437 11.6329 43.2091 12.2305 43.2091 12.994C43.2328 15.479 52.5704 14.1179 52.6653 20.1834C52.6653 23.4793 49.872 25.7983 45.86 25.7983C42.9198 25.7935 40.2214 25.1012 38.168 23.6215ZM94.9859 18.9409C94.246 20.2308 92.8613 21.1129 91.2584 21.1129C88.8919 21.1129 86.9855 19.2017 86.9855 16.84C86.9855 14.4783 88.8967 12.5672 91.2584 12.5672C92.8565 12.5672 94.246 13.4492 94.9859 14.7392L99.069 12.4723C97.542 9.75023 94.6017 7.88649 91.2584 7.88649C86.3121 7.88649 82.3001 11.8985 82.3001 16.8448C82.3001 21.791 86.3121 25.803 91.2584 25.803C94.6254 25.803 97.542 23.963 99.069 21.2172L94.9859 18.9409ZM54.7187 0.455261H59.8309V25.4616H54.7187V0.455261ZM101.075 0.455261V25.4616H106.187V17.9592L112.253 25.4616H118.797L111.081 16.5507L118.223 8.23742H111.963L106.182 15.1375V0.455261H101.075Z" fill="black"/>
<path d="M75.0206 18.9883C74.2808 20.2071 72.7538 21.1129 71.0323 21.1129C68.6659 21.1129 66.7595 19.2017 66.7595 16.84C66.7595 14.4783 68.6707 12.5672 71.0323 12.5672C72.7538 12.5672 74.2808 13.5204 75.0206 14.7629V18.9883ZM75.0206 8.24216V10.2719C74.186 8.86341 72.1088 7.88174 69.9321 7.88174C65.4411 7.88174 61.9081 11.8463 61.9081 16.8163C61.9081 21.7863 65.4411 25.7983 69.9321 25.7983C72.1041 25.7983 74.1812 24.8214 75.0206 23.4081V25.4379H80.1329V8.24216H75.0206Z" fill="black"/>
<path fill-rule="evenodd" clip-rule="evenodd" d="M6.56976 18.9646C6.56976 20.7098 5.16128 22.1182 3.4161 22.1182C1.67092 22.1182 0.262451 20.705 0.262451 18.9646C0.262451 17.2241 1.67092 15.8109 3.4161 15.8109H6.56976V18.9646ZM8.14421 18.9646C8.14421 17.2194 9.55268 15.8109 11.2979 15.8109C13.043 15.8109 14.4515 17.2194 14.4515 18.9646V26.8464C14.4515 28.5915 13.043 30 11.2979 30C9.55268 30 8.14421 28.5915 8.14421 26.8464V18.9646Z" fill="black"/>
<path fill-rule="evenodd" clip-rule="evenodd" d="M11.2979 6.3073C9.55271 6.3073 8.14424 4.89883 8.14424 3.15365C8.14424 1.40847 9.55271 0 11.2979 0C13.0431 0 14.4515 1.40847 14.4515 3.15365V6.3073H11.2979ZM11.2979 7.90547C13.0431 7.90547 14.4515 9.31394 14.4515 11.0591C14.4515 12.8043 13.0431 14.2128 11.2979 14.2128H3.39242C1.64724 14.2128 0.23877 12.7996 0.23877 11.0591C0.23877 9.31868 1.64724 7.90547 3.39242 7.90547H11.2979Z" fill="black"/>
<path fill-rule="evenodd" clip-rule="evenodd" d="M23.9314 11.0591C23.9314 9.31394 25.3399 7.90547 27.0851 7.90547C28.8303 7.90547 30.2387 9.31394 30.2387 11.0591C30.2387 12.8043 28.8303 14.2128 27.0851 14.2128H23.9314V11.0591ZM22.357 11.0591C22.357 12.8043 20.9485 14.2128 19.2033 14.2128C17.4582 14.2128 16.0497 12.8043 16.0497 11.0591V3.15365C16.0497 1.40847 17.4582 0 19.2033 0C20.9485 0 22.357 1.40847 22.357 3.15365V11.0591Z" fill="black"/>
<path fill-rule="evenodd" clip-rule="evenodd" d="M19.2033 23.6927C20.9485 23.6927 22.357 25.1012 22.357 26.8464C22.357 28.5915 20.9485 30 19.2033 30C17.4582 30 16.0497 28.5915 16.0497 26.8464V23.6927H19.2033ZM19.2033 22.1182C17.4582 22.1182 16.0497 20.7098 16.0497 18.9646C16.0497 17.2194 17.4582 15.8109 19.2033 15.8109H27.1088C28.854 15.8109 30.2625 17.2194 30.2625 18.9646C30.2625 20.7098 28.854 22.1182 27.1088 22.1182H19.2033Z" fill="black"/>
</g>
<defs>
<clipPath id="clip0_3_81">
<rect width="118.558" height="30" fill="white" transform="translate(0.23877)"/>
</clipPath>
</defs>
</svg>
