<svg width="101" height="30" viewBox="0 0 101 30" fill="none" xmlns="http://www.w3.org/2000/svg">
<g clip-path="url(#clip0_3_96)">
<path d="M15.797 1.52588e-05C7.51298 1.52588e-05 0.797119 6.71569 0.797119 14.9997C0.797119 23.2847 7.51298 30 15.797 30C24.0814 30 30.7969 23.2847 30.7969 14.9997C30.7969 6.71623 24.0818 0.000731184 15.7968 0.000731184L15.797 1.52588e-05ZM22.6759 21.6339C22.4065 22.0758 21.8308 22.2143 21.3903 21.945C17.868 19.7922 13.4344 19.3059 8.21314 20.4987C7.71 20.614 7.20847 20.2986 7.09385 19.7956C6.97867 19.2925 7.29266 18.791 7.79706 18.6763C13.5109 17.37 18.4121 17.9323 22.3658 20.3482C22.8065 20.6187 22.9462 21.1937 22.6757 21.6343L22.6759 21.6339ZM24.5118 17.5502C24.1726 18.1006 23.4529 18.2733 22.9032 17.9353C18.8721 15.4574 12.7253 14.7397 7.9563 16.1873C7.3378 16.3741 6.68456 16.0256 6.49684 15.4081C6.31056 14.7896 6.6593 14.1376 7.27672 13.9496C12.7243 12.2967 19.4963 13.0973 24.1266 15.9426C24.6765 16.2812 24.8502 17.0012 24.5117 17.5504L24.5118 17.5502ZM24.6695 13.2972C19.8343 10.4258 11.8589 10.1618 7.24321 11.5626C6.50203 11.7874 5.7182 11.369 5.49359 10.6278C5.26897 9.88627 5.68704 9.10298 6.42876 8.87765C11.7273 7.26917 20.5354 7.57994 26.1013 10.8841C26.768 11.2798 26.9867 12.1408 26.5916 12.8066C26.1975 13.4733 25.3342 13.6931 24.6696 13.2972H24.6695ZM41.6069 13.8475C39.017 13.2299 38.556 12.7964 38.556 11.8856C38.556 11.0251 39.3661 10.446 40.5709 10.446C41.7387 10.446 42.8967 10.8858 44.1108 11.791C44.1475 11.8184 44.1936 11.8293 44.2389 11.8222C44.2842 11.8154 44.3243 11.7905 44.3508 11.753L45.6154 9.97045C45.6673 9.89701 45.6532 9.79582 45.5832 9.73975C44.1382 8.58032 42.5111 8.01663 40.6092 8.01663C37.8128 8.01663 35.8595 9.69479 35.8595 12.0959C35.8595 14.6707 37.5445 15.5824 40.4563 16.2862C42.9345 16.857 43.3528 17.3353 43.3528 18.1902C43.3528 19.1376 42.507 19.7265 41.1459 19.7265C39.6341 19.7265 38.4011 19.2173 37.0217 18.0227C36.9875 17.9932 36.9405 17.9797 36.8972 17.9822C36.8515 17.986 36.8098 18.0071 36.7808 18.0421L35.3629 19.7295C35.3034 19.7996 35.3109 19.9042 35.3797 19.9647C36.9846 21.3975 38.9585 22.1543 41.0886 22.1543C44.1019 22.1543 46.0491 20.5078 46.0491 17.9595C46.0544 15.8083 44.7666 14.6172 41.6123 13.8498L41.6069 13.8475ZM52.8663 11.2932C51.5602 11.2932 50.4888 11.8077 49.6054 12.8618V11.6753C49.6054 11.5816 49.5295 11.5053 49.436 11.5053H47.1169C47.0233 11.5053 46.9475 11.5816 46.9475 11.6753V24.8588C46.9475 24.9524 47.0233 25.0287 47.1169 25.0287H49.436C49.5295 25.0287 49.6054 24.9524 49.6054 24.8588V20.6973C50.489 21.6889 51.5605 22.1734 52.8663 22.1734C55.2932 22.1734 57.75 20.3052 57.75 16.734C57.7535 13.1618 55.296 11.2931 52.869 11.2931L52.8663 11.2932ZM55.0533 16.734C55.0533 18.5526 53.9331 19.8216 52.3291 19.8216C50.7434 19.8216 49.5472 18.4949 49.5472 16.734C49.5472 14.9732 50.7434 13.6463 52.3291 13.6463C53.9071 13.6461 55.0535 14.9444 55.0535 16.7338L55.0533 16.734ZM64.0469 11.2932C60.9214 11.2932 58.4729 13.6999 58.4729 16.7728C58.4729 19.8123 60.9046 22.1937 64.0085 22.1937C67.1451 22.1937 69.6011 19.7951 69.6011 16.734C69.6011 13.6834 67.1615 11.2936 64.0467 11.2936L64.0469 11.2932ZM64.0469 19.8397C62.3845 19.8397 61.1312 18.504 61.1312 16.7331C61.1312 14.9546 62.3411 13.664 64.0085 13.664C65.6817 13.664 66.9434 14.9997 66.9434 16.7719C66.9434 18.55 65.7254 19.8397 64.047 19.8397H64.0469ZM76.2753 11.5053H73.7234V8.89628C73.7234 8.80278 73.6478 8.72648 73.5541 8.72648H71.2354C71.1416 8.72648 71.0654 8.80278 71.0654 8.89628V11.5053H69.9504C69.8571 11.5053 69.7815 11.5816 69.7815 11.6753V13.6684C69.7815 13.7619 69.8571 13.8383 69.9504 13.8383H71.0654V18.9953C71.0654 21.0794 72.1027 22.136 74.1484 22.136C74.9803 22.136 75.6704 21.9642 76.3208 21.5954C76.3736 21.5659 76.4064 21.5089 76.4064 21.4484V19.5504C76.4064 19.4918 76.3759 19.4365 76.3258 19.4059C76.2753 19.3742 76.2124 19.3726 76.1606 19.3982C75.7139 19.623 75.2821 19.7267 74.7993 19.7267C74.0553 19.7267 73.7234 19.3889 73.7234 18.6317V13.8392H76.2753C76.3689 13.8392 76.4444 13.7629 76.4444 13.6693V11.6764C76.4479 11.5827 76.3727 11.5064 76.2778 11.5064L76.2753 11.5053ZM85.1667 11.5155V11.1951C85.1667 10.2524 85.5282 9.83199 86.3389 9.83199C86.8223 9.83199 87.2106 9.928 87.6455 10.0731C87.6991 10.0899 87.755 10.0815 87.7985 10.0494C87.8433 10.0174 87.8685 9.96597 87.8685 9.91152V7.95734C87.8685 7.88264 87.8205 7.81655 87.7485 7.79451C87.2891 7.65784 86.7012 7.51759 85.821 7.51759C83.6791 7.51759 82.5469 8.72378 82.5469 11.0045V11.4953H81.4328C81.3393 11.4953 81.2626 11.5716 81.2626 11.6651V13.6683C81.2626 13.7618 81.3393 13.8383 81.4328 13.8383H82.5469V21.7928C82.5469 21.8865 82.6225 21.9628 82.716 21.9628H85.0351C85.1287 21.9628 85.205 21.8865 85.205 21.7928V13.8389H87.3702L90.687 21.7914C90.3105 22.627 89.9402 22.7932 89.4348 22.7932C89.0262 22.7932 88.5959 22.6712 88.156 22.4305C88.1146 22.4077 88.0656 22.4039 88.021 22.4177C87.9767 22.4333 87.9395 22.4663 87.9207 22.5093L87.1347 24.2336C87.0972 24.3151 87.1293 24.4108 87.2078 24.4531C88.0283 24.8975 88.769 25.0871 89.6844 25.0871C91.3968 25.0871 92.3433 24.2895 93.1776 22.1437L97.2008 11.7477C97.221 11.6954 97.2149 11.6362 97.1829 11.5899C97.151 11.5438 97.0996 11.5161 97.0433 11.5161H94.6292C94.5568 11.5161 94.4921 11.5621 94.4685 11.63L91.9954 18.6941L89.2866 11.6253C89.2619 11.5596 89.1985 11.5161 89.1283 11.5161H85.1662L85.1667 11.5155ZM80.0117 11.5053H77.6926C77.5989 11.5053 77.5227 11.5816 77.5227 11.6753V21.7928C77.5227 21.8865 77.5989 21.9628 77.6926 21.9628H80.0117C80.1052 21.9628 80.1817 21.8865 80.1817 21.7928V11.676C80.1817 11.6537 80.1773 11.6315 80.1688 11.6109C80.1603 11.5902 80.1477 11.5714 80.1319 11.5556C80.1161 11.5398 80.0973 11.5273 80.0766 11.5188C80.056 11.5103 80.0338 11.506 80.0115 11.506L80.0117 11.5053ZM78.8653 6.89858C77.9466 6.89858 77.2011 7.64227 77.2011 8.56097C77.2011 9.48021 77.9468 10.2248 78.8653 10.2248C79.7837 10.2248 80.5284 9.48021 80.5284 8.56097C80.5284 7.64245 79.7833 6.89858 78.8662 6.89858H78.8653ZM99.1809 14.7583C98.2631 14.7583 97.549 14.0212 97.549 13.1262C97.549 12.2311 98.2724 11.4856 99.1895 11.4856C100.107 11.4856 100.821 12.2225 100.821 13.1168C100.821 14.0119 100.098 14.7583 99.1808 14.7583H99.1809ZM99.1899 11.6479C98.3539 11.6479 97.7215 12.3124 97.7215 13.1262C97.7215 13.9395 98.3495 14.5951 99.1815 14.5951C100.017 14.5951 100.65 13.9311 100.65 13.1168C100.65 12.3035 100.022 11.6479 99.1906 11.6479H99.1899ZM99.5517 13.2847L100.013 13.9309H99.6241L99.2085 13.3381H98.8512V13.9309H98.5254V12.2179H99.2893C99.6873 12.2179 99.949 12.4215 99.949 12.7643C99.9508 13.0452 99.7878 13.2168 99.5532 13.2847H99.5517V13.2847ZM99.2759 12.5118H98.851V13.0536H99.2759C99.488 13.0536 99.6146 12.9499 99.6146 12.7824C99.6146 12.6062 99.4874 12.5118 99.276 12.5118H99.2759V12.5118Z" fill="black"/>
</g>
<defs>
<clipPath id="clip0_3_96">
<rect width="100.024" height="30" fill="white" transform="translate(0.797119)"/>
</clipPath>
</defs>
</svg>
